<svg xmlns="http://www.w3.org/2000/svg" width="375" viewBox="0 0 375 375" height="375" version="1.0"><g><g><g><path d="M 27.046875 -16.984375 L 10.53125 -11.65625 L 27.046875 -5.984375 L 27.046875 -2.84375 L 3.046875 -11.046875 L 3.046875 -19.09375 L 27.046875 -27.3125 Z M 27.046875 -16.984375" transform="translate(29.422 203.055)"/></g></g></g><g fill="#5271FF"><g><g><path d="M 0.46875 -30.09375 L 15.09375 -30.09375 L 25.15625 -7.359375 L 33.625 -30.09375 L 40.078125 -30.09375 L 49.96875 -7.875 L 58.21875 -30.09375 L 61.53125 -30.09375 L 50.1875 0 L 37.15625 0 L 30.921875 -14.109375 L 25.578125 0 L 13.796875 0 Z M 0.46875 -30.09375" transform="translate(63.817 203.055)"/></g></g></g><g fill="#5271FF"><g><g><path d="M 1.203125 -30.09375 L 15.21875 -30.09375 L 15.21875 0 L 1.203125 0 Z M 1.203125 -30.09375" transform="translate(130.117 203.055)"/></g></g></g><g fill="#5271FF"><g><g><path d="M 1.203125 -30.09375 L 13.84375 -30.09375 L 26.40625 -15.046875 L 26.40625 -30.09375 L 28.984375 -30.09375 L 28.984375 0 L 18.875 0 L 3.828125 -20.03125 L 3.828125 0 L 1.203125 0 Z M 1.203125 -30.09375" transform="translate(150.885 203.055)"/></g></g></g><g fill="#5271FF"><g><g><path d="M 23.90625 -19.3125 C 27.320312 -18.394531 29.875 -17.179688 31.5625 -15.671875 C 33.25 -14.171875 34.09375 -12.210938 34.09375 -9.796875 C 34.09375 -7.878906 33.488281 -6.160156 32.28125 -4.640625 C 31.082031 -3.117188 29.316406 -1.925781 26.984375 -1.0625 C 24.648438 -0.207031 21.816406 0.21875 18.484375 0.21875 C 14.554688 0.21875 11.09375 -0.289062 8.09375 -1.3125 C 5.101562 -2.332031 2.765625 -3.570312 1.078125 -5.03125 L 2.5 -6.96875 C 3.988281 -5.789062 5.863281 -4.785156 8.125 -3.953125 C 10.394531 -3.117188 12.832031 -2.703125 15.4375 -2.703125 C 17.125 -2.703125 18.40625 -2.945312 19.28125 -3.4375 C 20.15625 -3.925781 20.59375 -4.613281 20.59375 -5.5 C 20.59375 -7.050781 19.0625 -8.253906 16 -9.109375 L 10.40625 -10.75 C 7.363281 -11.664062 5.019531 -12.941406 3.375 -14.578125 C 1.726562 -16.210938 0.90625 -18.144531 0.90625 -20.375 C 0.90625 -22.238281 1.488281 -23.929688 2.65625 -25.453125 C 3.832031 -26.972656 5.546875 -28.171875 7.796875 -29.046875 C 10.054688 -29.921875 12.757812 -30.359375 15.90625 -30.359375 C 18.914062 -30.359375 21.6875 -30.015625 24.21875 -29.328125 C 26.757812 -28.640625 28.832031 -27.804688 30.4375 -26.828125 L 29.03125 -24.859375 C 27.675781 -25.628906 26.0625 -26.285156 24.1875 -26.828125 C 22.3125 -27.378906 20.34375 -27.65625 18.28125 -27.65625 C 16.46875 -27.65625 15.082031 -27.375 14.125 -26.8125 C 13.164062 -26.25 12.6875 -25.484375 12.6875 -24.515625 C 12.6875 -23.765625 13.039062 -23.109375 13.75 -22.546875 C 14.46875 -21.992188 15.832031 -21.441406 17.84375 -20.890625 Z M 23.90625 -19.3125" transform="translate(185.368 203.055)"/></g></g></g><g fill="#5271FF"><g><g><path d="M 12.21875 -27.5625 L 0.90625 -27.5625 L 0.90625 -30.09375 L 38.609375 -30.09375 L 38.609375 -27.5625 L 27.265625 -27.5625 L 27.265625 0 L 12.21875 0 Z M 12.21875 -27.5625" transform="translate(224.71 203.055)"/></g></g></g><g fill="#5271FF"><g><g><path d="M 21.328125 0.21875 C 17.484375 0.21875 14.015625 -0.367188 10.921875 -1.546875 C 7.828125 -2.722656 5.382812 -4.460938 3.59375 -6.765625 C 1.800781 -9.078125 0.90625 -11.851562 0.90625 -15.09375 C 0.90625 -18.300781 1.804688 -21.050781 3.609375 -23.34375 C 5.421875 -25.632812 7.863281 -27.375 10.9375 -28.5625 C 14.019531 -29.757812 17.484375 -30.359375 21.328125 -30.359375 C 25.140625 -30.359375 28.585938 -29.757812 31.671875 -28.5625 C 34.753906 -27.375 37.191406 -25.632812 38.984375 -23.34375 C 40.773438 -21.050781 41.671875 -18.300781 41.671875 -15.09375 C 41.671875 -11.851562 40.773438 -9.078125 38.984375 -6.765625 C 37.191406 -4.460938 34.753906 -2.722656 31.671875 -1.546875 C 28.585938 -0.367188 25.140625 0.21875 21.328125 0.21875 Z M 21.328125 -2.328125 C 22.535156 -2.328125 23.425781 -2.867188 24 -3.953125 C 24.476562 -4.785156 24.804688 -6.265625 24.984375 -8.390625 C 25.066406 -9.503906 25.109375 -11.738281 25.109375 -15.09375 C 25.109375 -18.476562 25.035156 -20.875 24.890625 -22.28125 C 24.804688 -24 24.492188 -25.300781 23.953125 -26.1875 C 23.378906 -27.28125 22.503906 -27.828125 21.328125 -27.828125 C 20.117188 -27.828125 19.21875 -27.28125 18.625 -26.1875 C 18.132812 -25.320312 17.816406 -24.019531 17.671875 -22.28125 C 17.554688 -20.78125 17.5 -18.382812 17.5 -15.09375 C 17.5 -11.363281 17.539062 -9.128906 17.625 -8.390625 C 17.738281 -6.410156 18.054688 -4.929688 18.578125 -3.953125 C 19.179688 -2.867188 20.097656 -2.328125 21.328125 -2.328125 Z M 21.328125 -2.328125" transform="translate(268.523 203.055)"/></g></g></g><g><g><g><path d="M 3.734375 -20.03125 L 3.734375 0 L 1.203125 0 L 1.203125 -30.09375 L 13.765625 -30.09375 L 20.03125 -17.546875 L 25.03125 -30.09375 L 38.78125 -30.09375 L 38.78125 0 L 25.03125 0 L 25.03125 -22.578125 L 16.25 0 L 12.515625 0 Z M 3.734375 -20.03125" transform="translate(29.375 245.805)"/></g></g></g><g><g><g><path d="M 1.203125 -30.09375 L 15.828125 -30.09375 L 15.828125 -16.640625 L 25.328125 -16.640625 L 25.328125 -30.09375 L 39.953125 -30.09375 L 39.953125 0 L 25.328125 0 L 25.328125 -13.765625 L 15.828125 -13.765625 L 15.828125 0 L 1.203125 0 Z M 1.203125 -30.09375" transform="translate(73.705 245.805)"/></g></g></g><g><g><g><path d="M 12.125 -30.09375 L 24.6875 -30.09375 L 38.015625 0 L 21.765625 0 L 17.25 -9.96875 L 7.78125 -9.96875 L 3.90625 0 L 0.78125 0 Z M 16.03125 -12.59375 L 12.125 -21.328125 L 8.734375 -12.59375 Z M 16.03125 -12.59375" transform="translate(119.152 245.805)"/></g></g></g><g><g><g><path d="M 1.203125 -15.09375 C 1.203125 -20.164062 2.445312 -23.9375 4.9375 -26.40625 C 6.550781 -28.007812 8.34375 -29.066406 10.3125 -29.578125 C 12.289062 -30.097656 14.890625 -30.359375 18.109375 -30.359375 C 21.085938 -30.359375 23.484375 -30.148438 25.296875 -29.734375 C 27.117188 -29.316406 28.617188 -28.4375 29.796875 -27.09375 C 30.773438 -25.96875 31.539062 -24.609375 32.09375 -23.015625 C 32.65625 -21.429688 32.976562 -19.878906 33.0625 -18.359375 L 30.609375 -18.359375 C 30.492188 -19.648438 30.1875 -20.972656 29.6875 -22.328125 C 29.1875 -23.691406 28.40625 -24.867188 27.34375 -25.859375 C 26.28125 -26.847656 24.9375 -27.34375 23.3125 -27.34375 C 21.789062 -27.34375 20.523438 -26.671875 19.515625 -25.328125 C 18.660156 -24.148438 18.046875 -22.585938 17.671875 -20.640625 C 17.328125 -18.921875 17.15625 -17.070312 17.15625 -15.09375 C 17.15625 -11.851562 17.554688 -9.144531 18.359375 -6.96875 C 19.421875 -4.1875 21.070312 -2.796875 23.3125 -2.796875 L 23.3125 -14.703125 L 36.46875 -14.703125 L 36.46875 0 C 32.332031 0 27.660156 0.0546875 22.453125 0.171875 L 18.109375 0.21875 C 14.953125 0.21875 12.390625 -0.0859375 10.421875 -0.703125 C 8.460938 -1.328125 6.78125 -2.335938 5.375 -3.734375 C 2.59375 -6.515625 1.203125 -10.300781 1.203125 -15.09375 Z M 1.203125 -15.09375" transform="translate(196.718 245.805)"/></g></g></g><g><g><g><path d="M 15.6875 -34.953125 L 24.765625 -34.953125 L 9.765625 4.8125 L 0.90625 4.8125 Z M 15.6875 -34.953125" transform="translate(285.549 245.805)"/></g></g></g><g><g><g><path d="M 27.046875 -19.09375 L 27.046875 -11.046875 L 3.046875 -2.84375 L 3.046875 -13.15625 L 19.515625 -18.484375 L 3.046875 -24.171875 L 3.046875 -27.3125 Z M 27.046875 -19.09375" transform="translate(315.517 245.805)"/></g></g></g></svg>